<?xml version="1.0" encoding="UTF-8" standalone="no"?>
<!DOCTYPE svg PUBLIC "-//W3C//DTD SVG 1.1//EN" "http://www.w3.org/Graphics/SVG/1.1/DTD/svg11.dtd">
<svg width="100%" height="100%" viewBox="0 0 1250 969" version="1.1" xmlns="http://www.w3.org/2000/svg" xmlns:xlink="http://www.w3.org/1999/xlink" xml:space="preserve" xmlns:serif="http://www.serif.com/" style="fill-rule:evenodd;clip-rule:evenodd;">
    <g id="Artboard1" transform="matrix(1,0,0,1,-615.157,-696.38)">
        <rect x="615.157" y="696.38" width="1250" height="968.75" style="fill:none;"/>
        <clipPath id="_clip1">
            <rect x="615.157" y="696.38" width="1250" height="968.75"/>
        </clipPath>
        <g clip-path="url(#_clip1)">
            <g transform="matrix(1,0,0,1,615.157,696.38)">
                <path d="M1250.16,29.431C1250.16,13.397 1237.14,0.38 1221.11,0.38L29.209,0.38C13.175,0.38 0.157,13.397 0.157,29.431L0.157,939.699C0.157,955.733 13.175,968.75 29.209,968.75L1221.11,968.75C1237.14,968.75 1250.16,955.733 1250.16,939.699L1250.16,29.431Z" style="fill:white;"/>
            </g>
            <g id="frag_iupac_demo.pdf" transform="matrix(4.16667,0,0,4.16667,1240.31,1181.13)">
                <g transform="matrix(1,0,0,1,-150,-116.25)">
                    <g transform="matrix(1,0,0,-1,0,232.5)">
                        <path d="M187.5,116.25L262.5,116.25" style="fill:none;fill-rule:nonzero;stroke:black;stroke-width:3px;"/>
                    </g>
                    <g transform="matrix(0.894427,-0.447214,0.447214,0.894427,-44.5379,81.3344)">
                        <path d="M108.074,135L191.926,135" style="fill:none;fill-rule:nonzero;stroke:black;stroke-width:3px;"/>
                    </g>
                    <g transform="matrix(1,0,0,-1,0,307.5)">
                        <path d="M37.5,153.75L112.5,153.75" style="fill:none;fill-rule:nonzero;stroke:black;stroke-width:3px;"/>
                    </g>
                    <g>
                        <path d="M218.823,105.615C218.823,106.079 218.744,106.509 218.585,106.904C218.427,107.3 218.202,107.64 217.911,107.926C217.621,108.212 217.272,108.435 216.864,108.596C216.456,108.757 216.006,108.838 215.513,108.838C215.132,108.838 214.794,108.793 214.498,108.702C214.203,108.612 213.936,108.503 213.696,108.376L213.696,111.753L212.422,111.753L212.422,101.265C212.422,100.869 212.484,100.492 212.609,100.133C212.733,99.774 212.921,99.46 213.173,99.192C213.424,98.923 213.739,98.71 214.117,98.551C214.496,98.392 214.939,98.313 215.447,98.313C215.891,98.313 216.285,98.38 216.63,98.514C216.974,98.649 217.263,98.833 217.498,99.067C217.732,99.302 217.909,99.575 218.029,99.888C218.148,100.2 218.208,100.535 218.208,100.891C218.208,101.145 218.173,101.392 218.102,101.631C218.031,101.87 217.933,102.086 217.809,102.279C217.684,102.472 217.537,102.633 217.366,102.762C217.195,102.892 217.012,102.974 216.816,103.008C217.114,103.042 217.386,103.132 217.633,103.279C217.88,103.425 218.091,103.615 218.267,103.846C218.442,104.078 218.579,104.346 218.677,104.648C218.774,104.951 218.823,105.273 218.823,105.615ZM213.696,107.183C213.97,107.349 214.259,107.483 214.564,107.585C214.869,107.688 215.19,107.739 215.527,107.739C215.815,107.739 216.082,107.699 216.326,107.618C216.57,107.538 216.78,107.413 216.956,107.245C217.131,107.076 217.269,106.864 217.369,106.608C217.469,106.351 217.52,106.04 217.52,105.674C217.52,105.396 217.482,105.139 217.406,104.905C217.33,104.67 217.208,104.468 217.04,104.297C216.871,104.126 216.652,103.992 216.381,103.894C216.11,103.796 215.779,103.748 215.388,103.748L214.773,103.748L214.773,102.649L215.227,102.649C215.525,102.649 215.78,102.605 215.992,102.517C216.205,102.429 216.379,102.311 216.516,102.162C216.653,102.013 216.754,101.838 216.82,101.638C216.886,101.438 216.919,101.226 216.919,101.001C216.919,100.771 216.884,100.558 216.813,100.36C216.742,100.162 216.641,99.993 216.509,99.851C216.377,99.709 216.216,99.598 216.025,99.518C215.835,99.437 215.618,99.397 215.374,99.397C215.11,99.397 214.873,99.442 214.663,99.532C214.453,99.623 214.277,99.751 214.136,99.917C213.994,100.083 213.885,100.286 213.81,100.525C213.734,100.764 213.696,101.03 213.696,101.323L213.696,107.183Z" style="fill-rule:nonzero;"/>
                        <path d="M237.109,106.633L235.476,106.633L235.476,108.75L234.172,108.75L234.172,106.633L229.565,106.633L229.565,105.513L233.645,99.177L235.476,99.177L235.476,105.513L237.109,105.513L237.109,106.633ZM234.172,100.408L230.839,105.513L234.172,105.513L234.172,100.408Z" style="fill-rule:nonzero;"/>
                    </g>
                    <g transform="matrix(0.894427,-0.447214,0.447214,0.894427,0,0)">
                        <path d="M67.706,177.194C67.706,177.658 67.627,178.087 67.468,178.483C67.309,178.878 67.085,179.219 66.794,179.504C66.504,179.79 66.154,180.013 65.747,180.175C65.339,180.336 64.889,180.416 64.395,180.416C64.015,180.416 63.676,180.371 63.381,180.281C63.086,180.19 62.818,180.082 62.579,179.955L62.579,183.331L61.305,183.331L61.305,172.843C61.305,172.448 61.367,172.07 61.491,171.711C61.616,171.353 61.804,171.039 62.055,170.77C62.307,170.502 62.622,170.288 63,170.129C63.379,169.971 63.822,169.891 64.33,169.891C64.774,169.891 65.168,169.959 65.512,170.093C65.857,170.227 66.146,170.411 66.38,170.646C66.615,170.88 66.792,171.154 66.911,171.466C67.031,171.779 67.091,172.113 67.091,172.47C67.091,172.723 67.055,172.97 66.985,173.209C66.914,173.449 66.816,173.665 66.692,173.857C66.567,174.05 66.419,174.211 66.248,174.341C66.078,174.47 65.894,174.552 65.699,174.586C65.997,174.62 66.269,174.711 66.516,174.857C66.762,175.004 66.974,175.193 67.149,175.425C67.325,175.657 67.462,175.924 67.56,176.227C67.657,176.53 67.706,176.852 67.706,177.194ZM62.579,178.761C62.852,178.927 63.142,179.061 63.447,179.164C63.752,179.266 64.073,179.318 64.41,179.318C64.698,179.318 64.964,179.277 65.208,179.197C65.453,179.116 65.663,178.992 65.838,178.823C66.014,178.655 66.152,178.442 66.252,178.186C66.352,177.93 66.402,177.618 66.402,177.252C66.402,176.974 66.364,176.718 66.289,176.483C66.213,176.249 66.091,176.046 65.923,175.875C65.754,175.704 65.534,175.57 65.263,175.472C64.992,175.375 64.662,175.326 64.271,175.326L63.656,175.326L63.656,174.227L64.11,174.227C64.408,174.227 64.663,174.183 64.875,174.095C65.088,174.008 65.262,173.889 65.399,173.74C65.536,173.591 65.637,173.417 65.703,173.217C65.769,173.016 65.802,172.804 65.802,172.579C65.802,172.35 65.766,172.136 65.696,171.939C65.625,171.741 65.523,171.571 65.392,171.429C65.26,171.288 65.099,171.177 64.908,171.096C64.718,171.016 64.5,170.975 64.256,170.975C63.993,170.975 63.756,171.021 63.546,171.111C63.336,171.201 63.16,171.329 63.019,171.495C62.877,171.661 62.768,171.864 62.693,172.103C62.617,172.343 62.579,172.609 62.579,172.902L62.579,178.761Z" style="fill-rule:nonzero;"/>
                        <path d="M85.338,177.422C85.338,177.842 85.253,178.237 85.082,178.605C84.911,178.974 84.654,179.296 84.313,179.572C83.971,179.848 83.541,180.065 83.024,180.224C82.506,180.383 81.903,180.462 81.215,180.462C80.834,180.462 80.492,180.45 80.189,180.425C79.886,180.401 79.603,180.369 79.34,180.33L79.34,179.188C79.642,179.241 79.962,179.283 80.299,179.312C80.636,179.341 80.98,179.356 81.332,179.356C81.81,179.356 82.219,179.313 82.559,179.228C82.898,179.142 83.175,179.019 83.39,178.858C83.605,178.697 83.761,178.502 83.859,178.272C83.956,178.043 84.005,177.784 84.005,177.496C84.005,177.232 83.946,177.003 83.829,176.807C83.712,176.612 83.547,176.448 83.335,176.316C83.122,176.185 82.869,176.086 82.573,176.02C82.278,175.954 81.954,175.921 81.603,175.921L80.511,175.921L80.511,174.874L81.617,174.874C81.905,174.874 82.168,174.836 82.405,174.76C82.642,174.684 82.844,174.576 83.013,174.434C83.181,174.293 83.31,174.118 83.401,173.91C83.491,173.703 83.536,173.467 83.536,173.204C83.536,172.691 83.38,172.317 83.068,172.083C82.755,171.849 82.296,171.732 81.691,171.732C81.368,171.732 81.036,171.763 80.694,171.827C80.353,171.89 79.986,171.985 79.596,172.112L79.596,170.999C79.762,170.94 79.939,170.888 80.127,170.842C80.315,170.795 80.503,170.756 80.691,170.724C80.879,170.693 81.066,170.668 81.251,170.651C81.437,170.634 81.615,170.626 81.786,170.626C82.294,170.626 82.74,170.68 83.126,170.79C83.512,170.9 83.834,171.058 84.093,171.263C84.352,171.468 84.547,171.717 84.679,172.01C84.811,172.303 84.877,172.632 84.877,172.999C84.877,173.545 84.736,174.004 84.455,174.376C84.175,174.747 83.79,175.042 83.302,175.262C83.551,175.301 83.796,175.379 84.038,175.496C84.28,175.613 84.497,175.763 84.69,175.947C84.883,176.13 85.039,176.346 85.159,176.595C85.278,176.844 85.338,177.12 85.338,177.422Z" style="fill-rule:nonzero;"/>
                    </g>
                    <g>
                        <path d="M68.823,143.115C68.823,143.579 68.744,144.009 68.585,144.404C68.427,144.8 68.202,145.14 67.911,145.426C67.621,145.712 67.272,145.935 66.864,146.096C66.456,146.257 66.006,146.338 65.513,146.338C65.132,146.338 64.794,146.293 64.498,146.202C64.203,146.112 63.936,146.003 63.696,145.876L63.696,149.253L62.422,149.253L62.422,138.765C62.422,138.369 62.484,137.992 62.609,137.633C62.733,137.274 62.921,136.96 63.173,136.692C63.424,136.423 63.739,136.21 64.117,136.051C64.496,135.892 64.939,135.813 65.447,135.813C65.891,135.813 66.285,135.88 66.63,136.014C66.974,136.149 67.263,136.333 67.498,136.567C67.732,136.802 67.909,137.075 68.029,137.388C68.148,137.7 68.208,138.035 68.208,138.391C68.208,138.645 68.173,138.892 68.102,139.131C68.031,139.37 67.933,139.586 67.809,139.779C67.684,139.972 67.537,140.133 67.366,140.262C67.195,140.392 67.012,140.474 66.816,140.508C67.114,140.542 67.386,140.632 67.633,140.779C67.88,140.925 68.091,141.115 68.267,141.346C68.442,141.578 68.579,141.846 68.677,142.148C68.774,142.451 68.823,142.773 68.823,143.115ZM63.696,144.683C63.97,144.849 64.259,144.983 64.564,145.085C64.869,145.188 65.19,145.239 65.527,145.239C65.815,145.239 66.082,145.199 66.326,145.118C66.57,145.038 66.78,144.913 66.956,144.745C67.131,144.576 67.269,144.364 67.369,144.108C67.469,143.851 67.52,143.54 67.52,143.174C67.52,142.896 67.482,142.639 67.406,142.405C67.33,142.17 67.208,141.968 67.04,141.797C66.871,141.626 66.652,141.492 66.381,141.394C66.11,141.296 65.779,141.248 65.388,141.248L64.773,141.248L64.773,140.149L65.227,140.149C65.525,140.149 65.78,140.105 65.992,140.017C66.205,139.929 66.379,139.811 66.516,139.662C66.653,139.513 66.754,139.338 66.82,139.138C66.886,138.938 66.919,138.726 66.919,138.501C66.919,138.271 66.884,138.058 66.813,137.86C66.742,137.662 66.641,137.493 66.509,137.351C66.377,137.209 66.216,137.098 66.025,137.018C65.835,136.937 65.618,136.897 65.374,136.897C65.11,136.897 64.873,136.942 64.663,137.032C64.453,137.123 64.277,137.251 64.136,137.417C63.994,137.583 63.885,137.786 63.81,138.025C63.734,138.264 63.696,138.53 63.696,138.823L63.696,144.683Z" style="fill-rule:nonzero;"/>
                        <path d="M87.109,144.133L85.476,144.133L85.476,146.25L84.172,146.25L84.172,144.133L79.565,144.133L79.565,143.013L83.645,136.677L85.476,136.677L85.476,143.013L87.109,143.013L87.109,144.133ZM84.172,137.908L80.839,143.013L84.172,143.013L84.172,137.908Z" style="fill-rule:nonzero;"/>
                    </g>
                    <g transform="matrix(0.894427,0.447214,-0.447214,0.894427,59.4392,-56.7887)">
                        <path d="M108.074,97.5L191.926,97.5" style="fill:none;fill-rule:nonzero;stroke:black;stroke-width:3px;"/>
                    </g>
                    <g transform="matrix(0.894427,0.447214,-0.447214,0.894427,0,0)">
                        <path d="M171.695,9.492C171.695,9.956 171.616,10.386 171.457,10.781C171.299,11.177 171.074,11.517 170.784,11.803C170.493,12.088 170.144,12.312 169.736,12.473C169.328,12.634 168.878,12.715 168.385,12.715C168.004,12.715 167.666,12.67 167.37,12.579C167.075,12.489 166.808,12.38 166.568,12.253L166.568,15.63L165.294,15.63L165.294,5.141C165.294,4.746 165.356,4.369 165.481,4.01C165.605,3.651 165.793,3.337 166.045,3.069C166.296,2.8 166.611,2.587 166.99,2.428C167.368,2.269 167.811,2.19 168.319,2.19C168.763,2.19 169.158,2.257 169.502,2.391C169.846,2.525 170.135,2.71 170.37,2.944C170.604,3.179 170.781,3.452 170.901,3.764C171.02,4.077 171.08,4.411 171.08,4.768C171.08,5.022 171.045,5.268 170.974,5.508C170.903,5.747 170.805,5.963 170.681,6.156C170.556,6.349 170.409,6.51 170.238,6.639C170.067,6.769 169.884,6.85 169.689,6.885C169.986,6.919 170.259,7.009 170.505,7.156C170.752,7.302 170.963,7.491 171.139,7.723C171.315,7.955 171.451,8.222 171.549,8.525C171.647,8.828 171.695,9.15 171.695,9.492ZM166.568,11.059C166.842,11.225 167.131,11.36 167.436,11.462C167.742,11.565 168.063,11.616 168.399,11.616C168.688,11.616 168.954,11.576 169.198,11.495C169.442,11.415 169.652,11.29 169.828,11.122C170.003,10.953 170.141,10.741 170.242,10.484C170.342,10.228 170.392,9.917 170.392,9.551C170.392,9.272 170.354,9.016 170.278,8.782C170.202,8.547 170.08,8.345 169.912,8.174C169.743,8.003 169.524,7.868 169.253,7.771C168.982,7.673 168.651,7.624 168.26,7.624L167.645,7.624L167.645,6.526L168.099,6.526C168.397,6.526 168.652,6.482 168.865,6.394C169.077,6.306 169.252,6.188 169.388,6.039C169.525,5.89 169.626,5.715 169.692,5.515C169.758,5.315 169.791,5.102 169.791,4.878C169.791,4.648 169.756,4.435 169.685,4.237C169.614,4.039 169.513,3.869 169.381,3.728C169.249,3.586 169.088,3.475 168.898,3.395C168.707,3.314 168.49,3.274 168.246,3.274C167.982,3.274 167.745,3.319 167.535,3.409C167.325,3.5 167.149,3.628 167.008,3.794C166.866,3.96 166.758,4.162 166.682,4.402C166.606,4.641 166.568,4.907 166.568,5.2L166.568,11.059Z" style="fill-rule:nonzero;"/>
                        <path d="M189.622,9.595C189.622,10.034 189.543,10.447 189.384,10.832C189.225,11.218 189,11.554 188.707,11.839C188.414,12.125 188.061,12.35 187.648,12.513C187.236,12.677 186.778,12.759 186.275,12.759C185.748,12.759 185.281,12.674 184.876,12.506C184.471,12.337 184.131,12.079 183.858,11.73C183.585,11.38 183.377,10.94 183.235,10.408C183.094,9.875 183.023,9.245 183.023,8.518C183.023,8.03 183.055,7.556 183.118,7.097C183.182,6.638 183.287,6.206 183.433,5.801C183.58,5.395 183.775,5.024 184.019,4.687C184.263,4.35 184.567,4.061 184.931,3.819C185.295,3.578 185.723,3.39 186.216,3.255C186.71,3.121 187.281,3.054 187.93,3.054L188.875,3.054L188.875,4.167L187.85,4.167C187.278,4.167 186.783,4.236 186.363,4.372C185.943,4.509 185.591,4.702 185.308,4.951C185.025,5.2 184.808,5.5 184.656,5.852C184.505,6.203 184.41,6.597 184.371,7.031L184.341,7.331C184.649,7.151 185.004,7.005 185.407,6.896C185.81,6.786 186.246,6.731 186.714,6.731C187.198,6.731 187.621,6.802 187.985,6.943C188.349,7.085 188.652,7.281 188.893,7.533C189.135,7.784 189.317,8.086 189.439,8.437C189.561,8.789 189.622,9.175 189.622,9.595ZM188.289,9.675C188.289,9.382 188.254,9.117 188.183,8.88C188.112,8.644 188.001,8.443 187.85,8.28C187.698,8.116 187.507,7.989 187.275,7.899C187.043,7.809 186.766,7.764 186.443,7.764C186.258,7.764 186.07,7.781 185.879,7.815C185.689,7.849 185.502,7.897 185.319,7.958C185.136,8.019 184.962,8.088 184.795,8.166C184.629,8.244 184.478,8.327 184.341,8.415C184.341,9.045 184.385,9.571 184.473,9.994C184.561,10.416 184.692,10.754 184.865,11.008C185.038,11.262 185.252,11.443 185.506,11.55C185.76,11.658 186.053,11.711 186.385,11.711C186.663,11.711 186.918,11.666 187.15,11.576C187.382,11.485 187.582,11.352 187.751,11.177C187.919,11.001 188.051,10.787 188.146,10.536C188.242,10.284 188.289,9.997 188.289,9.675Z" style="fill-rule:nonzero;"/>
                    </g>
                    <g transform="matrix(0,1,-1,0,378.75,-146.25)">
                        <path d="M262.5,97.5C272.855,97.5 281.25,105.895 281.25,116.25C281.25,126.605 272.855,135 262.5,135C252.145,135 243.75,126.605 243.75,116.25C243.75,105.895 252.145,97.5 262.5,97.5" style="fill:rgb(3,133,174);fill-rule:nonzero;stroke:black;stroke-width:1.5px;"/>
                    </g>
                    <g transform="matrix(0,1,-1,0,303.75,-71.25)">
                        <path d="M187.5,97.5C197.855,97.5 206.25,105.895 206.25,116.25C206.25,126.605 197.855,135 187.5,135C177.145,135 168.75,126.605 168.75,116.25C168.75,105.895 177.145,97.5 187.5,97.5" style="fill:rgb(252,195,38);fill-rule:nonzero;stroke:black;stroke-width:1.5px;"/>
                    </g>
                    <g transform="matrix(1,0,0,-1,0,307.5)">
                        <rect x="93.75" y="135" width="37.5" height="37.5" style="fill:rgb(3,133,174);stroke:black;stroke-width:1.5px;"/>
                    </g>
                    <g transform="matrix(0,1,-1,0,191.25,116.25)">
                        <path d="M18.75,153.75L56.25,153.75" style="fill:none;fill-rule:nonzero;stroke:black;stroke-width:1.5px;"/>
                    </g>
                    <g transform="matrix(1,0,0,-1,0,270)">
                        <path d="M36.75,135L52.5,135" style="fill:none;fill-rule:nonzero;stroke:black;stroke-width:1.5px;"/>
                    </g>
                    <g transform="matrix(0,1,-1,0,206.25,101.25)">
                        <path d="M52.5,148.125C55.605,148.125 58.125,150.645 58.125,153.75C58.125,156.855 55.605,159.375 52.5,159.375C49.395,159.375 46.875,156.855 46.875,153.75C46.875,150.645 49.395,148.125 52.5,148.125" style="fill:none;fill-rule:nonzero;stroke:black;stroke-width:1.5px;"/>
                    </g>
                    <g transform="matrix(-0.500119,0.99994,-0.99994,-0.500119,191.263,-33.7406)">
                        <path d="M104.73,18L138.27,18" style="fill:none;fill-rule:nonzero;stroke:black;stroke-width:1.34px;"/>
                    </g>
                    <g transform="matrix(1,0.5,0.5,-1,-1.23,2.46)">
                        <path d="M120.83,1.23L134.916,1.23" style="fill:none;fill-rule:nonzero;stroke:black;stroke-width:1.34px;"/>
                    </g>
                    <g transform="matrix(-0.5,1,-1,-0.5,211.374,-40.458)">
                        <path d="M134.914,12.968C137.696,12.968 139.947,15.221 139.946,17.999C139.949,20.779 137.696,23.03 134.914,23.03C132.138,23.032 129.886,20.778 129.883,17.999C129.885,15.221 132.138,12.969 134.914,12.968" style="fill:none;fill-rule:nonzero;stroke:black;stroke-width:1.34px;"/>
                    </g>
                </g>
            </g>
        </g>
    </g>
</svg>
